<?xml version="1.0" encoding="UTF-8"?>
<svg id="_Слой_1" data-name="Слой 1" xmlns="http://www.w3.org/2000/svg" width="1409.08" height="413.41" xmlns:xlink="http://www.w3.org/1999/xlink" viewBox="0 0 1409.08 413.41">
  <defs>
    <style>
      .cls-1 {
        fill: url(#_Безымянный_градиент_3-2);
      }

      .cls-2 {
        fill: url(#_Безымянный_градиент_3-3);
      }

      .cls-3 {
        fill: url(#_Безымянный_градиент_3-4);
      }

      .cls-4 {
        fill: url(#_Безымянный_градиент_8-2);
      }

      .cls-5 {
        fill: url(#_Безымянный_градиент_8);
      }

      .cls-6 {
        fill: url(#_Безымянный_градиент_3);
      }
    </style>
    <linearGradient id="_Безымянный_градиент_8" data-name="Безымянный градиент 8" x1="322.45" y1="-73.28" x2="-13.57" y2="262.75" gradientUnits="userSpaceOnUse">
      <stop offset="0" stop-color="#189cd9"/>
      <stop offset=".43" stop-color="#0f8ee1"/>
      <stop offset="1" stop-color="#0075f2"/>
    </linearGradient>
    <linearGradient id="_Безымянный_градиент_8-2" data-name="Безымянный градиент 8" x1="480.75" y1="85.02" x2="144.73" y2="421.04" xlink:href="#_Безымянный_градиент_8"/>
    <linearGradient id="_Безымянный_градиент_3" data-name="Безымянный градиент 3" x1="3.74" y1="161.2" x2="257.84" y2="415.3" gradientUnits="userSpaceOnUse">
      <stop offset="0" stop-color="#52bdea"/>
      <stop offset=".31" stop-color="#44b5e5"/>
      <stop offset=".88" stop-color="#20a0db"/>
      <stop offset="1" stop-color="#189cd9"/>
    </linearGradient>
    <linearGradient id="_Безымянный_градиент_3-2" data-name="Безымянный градиент 3" x1="15.23" y1="149.71" x2="269.33" y2="403.81" xlink:href="#_Безымянный_градиент_3"/>
    <linearGradient id="_Безымянный_градиент_3-3" data-name="Безымянный градиент 3" x1="161.84" y1="3.1" x2="415.94" y2="257.2" xlink:href="#_Безымянный_градиент_3"/>
    <linearGradient id="_Безымянный_градиент_3-4" data-name="Безымянный градиент 3" x1="150.35" y1="14.59" x2="404.45" y2="268.69" xlink:href="#_Безымянный_градиент_3"/>
  </defs>
  <g>
    <g>
      <path class="cls-5" d="M204.08,107.44c-8.09,24.2-20.12,47.53-36.26,69.03-7.26,9.64-15.08,18.64-23.39,26.9-20.5,20.41-44.08,36.54-69.39,48.24-16.01,7.43-32.75,13.05-49.87,16.86-7.87,1.75-15.62-3.14-17.77-10.89-3.61-12.97-5.95-26.45-6.9-40.33-.34-4.61-.49-9.27-.49-13.96s.15-9.27,.49-13.84c26.97-4.84,52.77-16.43,74.54-34.4,9.78-8.03,18.77-17.37,26.67-27.91,23.19-30.95,33.62-67.55,32.17-103.44-.27-6.8,3.91-13.04,10.43-15.04C159.96,3.84,176.43,.88,193.43,0c-1.24,10.05-1.88,20.18-1.88,30.31,0,25.96,4.1,51.99,12.52,77.13Z"/>
      <path class="cls-4" d="M204.03,299.4c8.09-24.2,20.12-47.53,36.26-69.03,7.26-9.64,15.08-18.64,23.39-26.9,20.5-20.41,44.08-36.54,69.39-48.24,16.01-7.43,32.75-13.05,49.87-16.86,7.87-1.75,15.62,3.14,17.77,10.89,3.61,12.97,5.95,26.45,6.9,40.33,.34,4.61,.49,9.27,.49,13.96s-.15,9.27-.49,13.84c-26.97,4.84-52.77,16.43-74.54,34.4-9.78,8.03-18.77,17.37-26.67,27.91-23.19,30.95-33.62,67.55-32.17,103.44,.27,6.8-3.91,13.04-10.43,15.04-15.66,4.82-32.13,7.78-49.13,8.66,1.24-10.05,1.88-20.18,1.88-30.31,0-25.96-4.1-51.99-12.52-77.13Z"/>
    </g>
    <g>
      <path class="cls-6" d="M214.68,406.58c-3.54,.19-7.03,.26-10.61,.26s-7.15-.08-10.72-.26c-16.97-.91-33.38-3.85-49.01-8.63-6.52-2-10.72-8.23-10.45-15.04,1.42-35.84-8.97-72.37-32.09-103.28-7.94-10.62-16.96-19.96-26.78-28.02,25.31-11.7,48.89-27.84,69.39-48.24,8.39,8.25,16.25,17.29,23.54,27.01,16.06,21.42,28.02,44.64,36.07,68.73,11.66,34.96,15.08,71.73,10.64,107.48Z"/>
      <path class="cls-1" d="M75.03,155.05C53.26,173.02,27.46,184.61,.49,189.45c.92-13.88,3.26-27.37,6.87-40.34,2.15-7.75,9.89-12.64,17.76-10.9,17.14,3.79,33.87,9.43,49.92,16.84Z"/>
      <path class="cls-2" d="M193.42,.26c3.54-.19,7.03-.26,10.61-.26s7.15,.08,10.72,.26c16.97,.91,33.38,3.85,49.01,8.63,6.52,2,10.72,8.23,10.45,15.04-1.42,35.84,8.97,72.37,32.09,103.28,7.94,10.62,16.96,19.96,26.78,28.02-25.31,11.7-48.89,27.84-69.39,48.24-8.39-8.25-16.25-17.29-23.54-27.01-16.06-21.42-28.02-44.64-36.07-68.73-11.66-34.96-15.08-71.73-10.64-107.48Z"/>
      <path class="cls-3" d="M333.08,251.79c21.78-17.97,47.58-29.56,74.54-34.4-.92,13.88-3.26,27.37-6.87,40.34-2.15,7.75-9.89,12.64-17.76,10.9-17.14-3.79-33.87-9.43-49.92-16.84Z"/>
    </g>
  </g>
  <g>
    <g>
      <path d="M948.33,356.98c.11-1.23,.38-2.52,.84-3.84,.45-1.33,1.16-2.52,2.13-3.57,1.15-1.27,2.44-2.2,3.87-2.78s2.78-.94,4.05-1.06,2.8-.18,4.62-.18h6.15v7.78h-5.7c-2.23,0-3.9,.54-5,1.63s-1.65,2.65-1.65,4.71v3.53h12.35v7.6h-12.35v41.26h-9.46v-41.26h-8.1v-7.6h8.1v-1.72c0-1.75,.05-3.24,.16-4.48Z"/>
      <path d="M984,410.13c-3.62-2.19-6.41-5.23-8.37-9.14s-2.94-8.38-2.94-13.42,1-9.55,2.99-13.44,4.8-6.91,8.41-9.07c3.62-2.16,7.8-3.24,12.53-3.24s9.01,1.09,12.65,3.26c3.63,2.17,6.43,5.21,8.39,9.12s2.94,8.36,2.94,13.37-.99,9.55-2.97,13.46c-1.98,3.91-4.77,6.94-8.39,9.12-3.62,2.17-7.83,3.26-12.62,3.26s-9-1.09-12.62-3.28Zm2.31-10.16c2.38,3.02,5.82,4.53,10.32,4.53s7.98-1.53,10.36-4.59,3.57-7.17,3.57-12.33-1.19-9.33-3.57-12.33-5.84-4.5-10.36-4.5-8.04,1.51-10.38,4.53c-2.34,3.02-3.51,7.12-3.51,12.31s1.19,9.38,3.57,12.4Z"/>
      <path d="M1036.96,409.49c-2.88-2.58-4.82-5.59-5.81-9.02s-1.49-6.82-1.49-10.14v-27.15h9.59v24.03c0,4.8,.89,8.86,2.67,12.19,1.78,3.33,5.01,5,9.68,5,3.71,0,6.7-1.27,8.98-3.8s3.42-6.53,3.42-11.99v-25.43h9.55v48.87h-8.42v-5.84c-1.84,2.29-4.12,4.06-6.83,5.29-2.71,1.24-5.82,1.86-9.32,1.86-5.13,0-9.13-1.29-12.01-3.87Z"/>
      <path d="M1117.84,375.83c-1.78-3.33-5.01-5-9.68-5-3.71,0-6.7,1.27-8.98,3.8-2.28,2.53-3.42,6.53-3.42,11.99v25.43h-9.59v-48.87h8.46v5.84c1.84-2.29,4.12-4.06,6.83-5.29,2.71-1.23,5.82-1.85,9.32-1.85,5.13,0,9.13,1.29,12.01,3.87,2.88,2.58,4.82,5.59,5.81,9.03s1.49,6.82,1.49,10.13v27.15h-9.59v-24.03c0-4.8-.89-8.86-2.67-12.19Z"/>
      <path d="M1149.01,410.03c-3.35-2.25-5.93-5.33-7.74-9.25-1.81-3.92-2.71-8.32-2.71-13.21s.91-9.33,2.74-13.23c1.82-3.9,4.42-6.97,7.78-9.18s7.29-3.33,11.79-3.33c5.31,0,9.74,1.57,13.3,4.71v-19.64h9.5v65.15h-8.41v-4.43c-1.81,1.87-3.94,3.3-6.38,4.3s-5.17,1.49-8.19,1.49c-4.43,0-8.32-1.12-11.67-3.37Zm1.09-13.6c1,2.59,2.5,4.65,4.5,6.15,2,1.51,4.47,2.26,7.4,2.26,4.46,0,7.79-1.54,9.98-4.64,2.19-3.09,3.28-7.31,3.28-12.65s-1.08-9.46-3.24-12.55c-2.16-3.09-5.39-4.64-9.71-4.64-3.05,0-5.6,.75-7.65,2.24-2.05,1.49-3.57,3.54-4.57,6.13s-1.49,5.53-1.49,8.82,.5,6.27,1.49,8.87Z"/>
      <path d="M1201.18,411.44c-2.47-1.31-4.35-3.08-5.63-5.29-1.28-2.22-1.92-4.68-1.92-7.4,0-7.21,3.84-12.03,11.54-14.48,2.32-.69,4.95-1.29,7.89-1.79,2.94-.5,7.02-1.11,12.24-1.83l1.49-.18c-.15-3.44-1.09-5.95-2.81-7.53-1.72-1.58-4.46-2.38-8.23-2.38-2.74,0-5.16,.63-7.24,1.9s-3.51,3.2-4.3,5.79l-8.82-2.71c1.21-4.31,3.53-7.68,6.99-10.09,3.45-2.41,7.94-3.62,13.46-3.62,4.49,0,8.34,.77,11.54,2.31s5.53,3.88,7.01,7.01c.69,1.48,1.15,3.05,1.38,4.73s.34,3.7,.34,6.09v30.09h-8.37v-7.1c-2.02,2.87-4.47,4.99-7.35,6.38-2.88,1.39-6.3,2.08-10.25,2.08-3.5,0-6.49-.65-8.96-1.97Zm4.05-7.76c1.49,1.33,3.69,1.99,6.58,1.99,2.56,0,4.82-.46,6.79-1.38,1.96-.92,3.53-2.12,4.73-3.6,1.19-1.48,1.98-3.05,2.38-4.71,.6-1.75,.93-4.3,1-7.65l-1.18,.18c-4.4,.63-7.7,1.15-9.88,1.54-2.19,.39-4.16,.84-5.91,1.36-2.11,.72-3.76,1.66-4.95,2.8-1.19,1.15-1.79,2.63-1.79,4.43,0,2.02,.75,3.7,2.24,5.02Z"/>
      <path d="M1268.1,412.86c-3.38,0-6.33-.54-8.84-1.63-2.52-1.09-4.4-2.79-5.63-5.11-.75-1.42-1.24-2.87-1.47-4.37-.23-1.49-.34-3.31-.34-5.45v-25.52h-9.37v-7.6h9.37v-13.57h9.5v13.57h14.52v7.6h-14.52v24.16c0,1.54,.06,2.78,.18,3.73,.12,.95,.39,1.77,.81,2.47,.73,1.21,1.74,2.07,3.05,2.6s2.92,.79,4.82,.79c1.63,0,3.51-.16,5.66-.5v8.01c-2.8,.54-5.38,.81-7.74,.81Z"/>
      <path d="M1287.01,345.99h9.46v9.19h-9.46v-9.19Zm0,17.19h9.46v48.87h-9.46v-48.87Z"/>
      <path d="M1318.64,410.13c-3.62-2.19-6.41-5.23-8.37-9.14s-2.94-8.38-2.94-13.42,1-9.55,2.99-13.44,4.8-6.91,8.41-9.07c3.62-2.16,7.8-3.24,12.53-3.24s9.01,1.09,12.65,3.26c3.63,2.17,6.43,5.21,8.39,9.12s2.94,8.36,2.94,13.37-.99,9.55-2.97,13.46c-1.98,3.91-4.77,6.94-8.39,9.12-3.62,2.17-7.83,3.26-12.62,3.26s-9-1.09-12.62-3.28Zm2.31-10.16c2.38,3.02,5.82,4.53,10.32,4.53s7.98-1.53,10.36-4.59,3.57-7.17,3.57-12.33-1.19-9.33-3.57-12.33-5.84-4.5-10.36-4.5-8.04,1.51-10.38,4.53c-2.34,3.02-3.51,7.12-3.51,12.31s1.19,9.38,3.57,12.4Z"/>
      <path d="M1396.82,375.83c-1.78-3.33-5.01-5-9.68-5-3.71,0-6.7,1.27-8.98,3.8-2.28,2.53-3.42,6.53-3.42,11.99v25.43h-9.59v-48.87h8.46v5.84c1.84-2.29,4.12-4.06,6.83-5.29,2.71-1.23,5.82-1.85,9.32-1.85,5.13,0,9.13,1.29,12.01,3.87,2.88,2.58,4.82,5.59,5.81,9.03s1.49,6.82,1.49,10.13v27.15h-9.59v-24.03c0-4.8-.89-8.86-2.67-12.19Z"/>
    </g>
    <g>
      <path d="M504.47,255.8V126.37h42.87V255.8c0,8.06,2.61,13.6,7.83,16.62,5.22,3.02,14.24,4.53,27.07,4.53s21.48-1.51,26.52-4.53c5.04-3.03,7.56-8.56,7.56-16.62V126.37h42.87V255.8c0,34.44-25.83,51.66-77.49,51.66s-77.22-17.22-77.22-51.66Z"/>
      <path d="M691.6,302.51v-32.7c31.14,4.76,52.39,7.14,63.75,7.14,23.81,0,35.72-6.13,35.72-18.41v-11.54c0-5.86-1.69-10.35-5.08-13.46-3.39-3.11-9.48-4.67-18.27-4.67h-20.88c-39.21,0-58.81-15.57-58.81-46.72v-13.19c0-15.57,6.5-27.02,19.51-34.35,13.01-7.32,33.62-10.99,61.83-10.99,14.65,0,33.25,1.19,55.78,3.57v31.88c-27.67-3.3-46.71-4.95-57.16-4.95-14.47,0-24.18,1.2-29.13,3.58-5.32,2.57-7.97,6.59-7.97,12.09v12.64c0,9.35,7.88,14.01,23.63,14.01h21.43c20.34,0,35.08,3.76,44.24,11.27,9.16,7.51,13.74,18.96,13.74,34.34v11.82c0,21.25-7.6,35.63-22.81,43.14-7.33,3.85-15.44,6.55-24.32,8.11-8.89,1.55-19.56,2.33-32.01,2.33-17.04,0-38.11-1.65-63.2-4.95Z"/>
      <path d="M904.84,156.87h-54.96v-30.5h152.51v30.5h-54.68v147.84h-42.87V156.87Z"/>
      <path d="M1027.12,126.37h136.02v30.5h-93.16v40.95h84.09v30.5h-84.09v45.89h95.9v30.5h-138.77V126.37Z"/>
      <path d="M1194.74,126.37h61l43.97,127.51,43.42-127.51h57.43v178.34h-38.75V172.81h-.82l-45.07,131.9h-34.35l-46.44-131.9h-1.1v131.9h-39.3V126.37Z"/>
    </g>
  </g>
</svg>